REM DIRINDEX 1\2,1\3
REM DIRNAME folder01,folder02,folder03
TITLE ""
FILE "DaigakuNyushi150-08.mp3" MP3
  TRACK 01 AUDIO
    TITLE "3:cjc122_153"
    INDEX 01 00:00:00
  TRACK 02 AUDIO
    TITLE "0:"
    INDEX 01 00:01:44
  TRACK 03 AUDIO
    TITLE "2:cjc122_154"
    INDEX 01 00:02:08
  TRACK 04 AUDIO
    TITLE "0:"
    INDEX 01 00:05:71
  TRACK 05 AUDIO
    TITLE "2:cjc122_155"
    INDEX 01 00:06:35
  TRACK 06 AUDIO
    TITLE "0:"
    INDEX 01 00:09:59
  TRACK 07 AUDIO
    TITLE "3:cjc122_156"
    INDEX 01 00:10:23
  TRACK 08 AUDIO
    TITLE "0:"
    INDEX 01 00:11:66
  TRACK 09 AUDIO
    TITLE "2:cjc122_157"
    INDEX 01 00:12:18
  TRACK 10 AUDIO
    TITLE "0:"
    INDEX 01 00:15:62
  TRACK 11 AUDIO
    TITLE "2:cjc122_158"
    INDEX 01 00:16:14
  TRACK 12 AUDIO
    TITLE "0:"
    INDEX 01 00:19:01
  TRACK 13 AUDIO
    TITLE "3:cjc122_159"
    INDEX 01 00:19:32
  TRACK 14 AUDIO
    TITLE "0:"
    INDEX 01 00:21:06
  TRACK 15 AUDIO
    TITLE "2:cjc122_160"
    INDEX 01 00:21:37
  TRACK 16 AUDIO
    TITLE "0:"
    INDEX 01 00:27:28
  TRACK 17 AUDIO
    TITLE "2:cjc122_161"
    INDEX 01 00:27:59
  TRACK 18 AUDIO
    TITLE "0:"
    INDEX 01 00:33:32
  TRACK 19 AUDIO
    TITLE "2:cjc122_162"
    INDEX 01 00:33:66
  TRACK 20 AUDIO
    TITLE "0:"
    INDEX 01 00:39:29
  TRACK 21 AUDIO
    TITLE "3:cjc122_163"
    INDEX 01 00:39:58
  TRACK 22 AUDIO
    TITLE "0:"
    INDEX 01 00:41:34
  TRACK 23 AUDIO
    TITLE "2:cjc122_164"
    INDEX 01 00:41:71
  TRACK 24 AUDIO
    TITLE "0:"
    INDEX 01 00:45:61
  TRACK 25 AUDIO
    TITLE "2:cjc122_165"
    INDEX 01 00:46:11
  TRACK 26 AUDIO
    TITLE "0:"
    INDEX 01 00:49:74
  TRACK 27 AUDIO
    TITLE "3:cjc122_166"
    INDEX 01 00:50:29
  TRACK 28 AUDIO
    TITLE "0:"
    INDEX 01 00:52:00
  TRACK 29 AUDIO
    TITLE "2:cjc122_167"
    INDEX 01 00:52:41
  TRACK 30 AUDIO
    TITLE "0:"
    INDEX 01 00:57:01
  TRACK 31 AUDIO
    TITLE "2:cjc122_168"
    INDEX 01 00:57:37
  TRACK 32 AUDIO
    TITLE "0:"
    INDEX 01 01:01:27
  TRACK 33 AUDIO
    TITLE "3:cjc122_169"
    INDEX 01 01:01:62
  TRACK 34 AUDIO
    TITLE "0:"
    INDEX 01 01:03:39
  TRACK 35 AUDIO
    TITLE "2:cjc122_170"
    INDEX 01 01:03:71
  TRACK 36 AUDIO
    TITLE "0:"
    INDEX 01 01:08:40
  TRACK 37 AUDIO
    TITLE "2:cjc122_171"
    INDEX 01 01:08:68
  TRACK 38 AUDIO
    TITLE "0:"
    INDEX 01 01:14:66
  TRACK 39 AUDIO
    TITLE "3:cjc122_172"
    INDEX 01 01:15:25
  TRACK 40 AUDIO
    TITLE "0:"
    INDEX 01 01:16:73
  TRACK 41 AUDIO
    TITLE "2:cjc122_173"
    INDEX 01 01:17:30
  TRACK 42 AUDIO
    TITLE "0:"
    INDEX 01 01:22:17
  TRACK 43 AUDIO
    TITLE "2:cjc122_174"
    INDEX 01 01:22:46
  TRACK 44 AUDIO
    TITLE "0:"
    INDEX 01 01:26:23
  TRACK 45 AUDIO
    TITLE "3:cjc122_175"
    INDEX 01 01:26:56
  TRACK 46 AUDIO
    TITLE "0:"
    INDEX 01 01:28:16
  TRACK 47 AUDIO
    TITLE "2:cjc122_176"
    INDEX 01 01:28:49
  TRACK 48 AUDIO
    TITLE "0:"
    INDEX 01 01:32:23
  TRACK 49 AUDIO
    TITLE "2:cjc122_177"
    INDEX 01 01:32:59
  TRACK 50 AUDIO
    TITLE "0:"
    INDEX 01 01:35:06
  TRACK 51 AUDIO
    TITLE "3:cjc122_178"
    INDEX 01 01:35:41
  TRACK 52 AUDIO
    TITLE "0:"
    INDEX 01 01:37:13
  TRACK 53 AUDIO
    TITLE "2:cjc122_179"
    INDEX 01 01:37:48
  TRACK 54 AUDIO
    TITLE "0:"
    INDEX 01 01:42:14
  TRACK 55 AUDIO
    TITLE "2:cjc122_180"
    INDEX 01 01:42:41
  TRACK 56 AUDIO
    TITLE "0:"
    INDEX 01 01:46:10
  TRACK 57 AUDIO
    TITLE "3:cjc122_181"
    INDEX 01 01:46:37
  TRACK 58 AUDIO
    TITLE "0:"
    INDEX 01 01:47:48
  TRACK 59 AUDIO
    TITLE "2:cjc122_182"
    INDEX 01 01:48:03
  TRACK 60 AUDIO
    TITLE "0:"
    INDEX 01 01:51:28
